Mitt hjärtas förlorade slag aka The Beat That My Heart Skipped


General
Complete name                    : De battre mon coeur s'est arrêté.Swe_Sub.avi

Format                           : AVI
File size                        : 1.37 GiB
Duration                         : 1h 42mn
Overall bit rate                 : 1 917 Kbps

Video
ID                               : 0
Format                           : MPEG-4 Visual
Codec ID                         : XVID
Duration                         : 1h 42mn
Bit rate                         : 1 776 Kbps
Width                            : 700 pixels
Height                           : 552 pixels
Display aspect ratio             : 16:9
Resolution                       : 8 bits
Colorimetry                      : 4:2:0
Scan type                        : Progressive
Bits/(Pixel*Frame)               : 0.184
Stream size                      : 1.27 GiB (93%)
Writing library                  : XviD 1.1.2 (UTC 2006-11-01)

Audio
ID                               : 1
Format                           : MPEG Audio
Format version                   : Version 1
Format profile                   : Layer 3
Mode                             : Joint stereo
Format_Settings_ModeExtension    : MS Stereo
Codec ID                         : 55
Codec ID/Hint                    : MP3
Duration                         : 1h 42mn
Bit rate mode                    : Constant
Bit rate                         : 128 Kbps
Channel(s)                       : 2 channels
Sampling rate                    : 48.0 KHz
Stream size                      : 93.9 MiB (7%)
Alignment                        : Split accross interleaves)
Writing library                  : LAME3.98

